<?xml version="1.0" standalone="no"?>
<!DOCTYPE svg PUBLIC "-//W3C//DTD SVG 20010904//EN"
 "http://www.w3.org/TR/2001/REC-SVG-20010904/DTD/svg10.dtd">
<svg version="1.0" xmlns="http://www.w3.org/2000/svg"
 width="500.000000pt" height="500.000000pt" viewBox="0 0 500.000000 500.000000"
 preserveAspectRatio="xMidYMid meet">
<metadata>
Created by potrace 1.14, written by Peter Selinger 2001-2017
</metadata>
<g transform="translate(0.000000,500.000000) scale(0.100000,-0.100000)"
fill="#000000" stroke="none">
<path d="M2350 4825 c0 -33 2 -35 34 -35 33 0 33 -1 40 -52 3 -29 6 -70 6 -90
0 -38 0 -38 40 -38 l40 0 0 89 0 90 38 3 c34 3 37 6 37 33 l0 30 -117 3 -118
3 0 -36z"/>
<path d="M2204 4840 c-12 -4 -32 -26 -44 -47 l-24 -38 -6 35 c-5 34 -7 35 -44
33 -22 -2 -41 -5 -43 -7 -2 -2 4 -59 13 -126 l17 -122 30 6 c16 3 36 6 44 6
11 0 13 7 8 30 -4 19 -1 37 8 49 13 20 15 19 44 -22 28 -40 33 -43 69 -39 68
6 69 8 22 64 -77 93 -74 82 -33 138 l37 50 -39 -1 c-21 0 -47 -4 -59 -9z"/>
<path d="M2645 4753 c-4 -54 -8 -109 -9 -123 -1 -22 3 -25 40 -28 l42 -3 6 68
c3 37 9 94 12 126 l6 57 -45 0 -45 0 -7 -97z"/>
<path d="M2872 4819 c-87 -26 -107 -182 -29 -229 106 -65 207 -9 207 113 0 48
-33 101 -68 111 -43 12 -80 14 -110 5z m83 -76 c20 -19 15 -78 -9 -102 -12
-12 -20 -12 -41 -3 -20 9 -25 19 -25 47 0 22 8 43 20 55 24 24 34 25 55 3z"/>
<path d="M1853 4773 c-51 -14 -93 -31 -93 -37 0 -6 14 -61 31 -123 l31 -111
46 13 c26 7 72 20 103 29 52 15 56 18 51 42 -6 34 -18 37 -77 19 -48 -14 -74
-8 -61 13 3 6 29 15 56 22 45 11 50 15 44 34 -11 35 -19 38 -73 22 -41 -12
-51 -12 -51 -2 0 7 21 19 48 26 26 7 51 16 55 20 9 8 -1 60 -12 59 -3 0 -48
-12 -98 -26z"/>
<path d="M3116 4662 c-20 -59 -36 -112 -36 -119 0 -12 60 -36 69 -27 3 3 13
26 22 52 l16 47 18 -64 c16 -56 22 -65 53 -78 19 -8 38 -11 42 -6 4 4 22 53
40 108 18 55 35 105 37 111 2 6 -7 14 -20 18 -14 3 -32 8 -40 12 -11 4 -20 -9
-33 -48 l-18 -53 -20 67 c-17 58 -24 69 -49 78 -17 5 -33 10 -38 10 -4 0 -23
-48 -43 -108z"/>
<path d="M1564 4676 c-61 -27 -82 -88 -44 -126 16 -16 33 -20 85 -20 49 0 65
-3 65 -14 0 -22 -31 -28 -51 -11 -16 15 -20 15 -48 0 -85 -44 27 -101 115 -59
44 21 64 50 64 91 0 42 -30 73 -72 73 l-33 1 28 15 c32 17 33 25 9 47 -22 20
-75 21 -118 3z m61 -55 c3 -5 -4 -13 -16 -16 -23 -8 -34 -1 -24 14 8 13 32 14
40 2z"/>
<path d="M3411 4553 c-28 -58 -50 -112 -47 -118 2 -6 43 -29 91 -50 84 -38 88
-39 101 -20 23 31 17 42 -42 65 -39 16 -53 27 -50 37 4 8 6 17 6 19 0 2 23 -7
52 -22 49 -25 52 -25 65 -8 21 29 16 39 -37 64 -34 16 -47 27 -40 34 6 6 27 2
61 -14 50 -24 51 -24 65 -5 8 10 14 22 14 27 0 6 -171 98 -183 98 -2 0 -27
-48 -56 -107z"/>
<path d="M1253 4517 c-28 -19 -33 -28 -33 -64 0 -24 -2 -43 -5 -43 -2 0 -20 7
-39 16 -33 16 -36 16 -70 -5 -20 -13 -36 -26 -36 -29 0 -4 35 -22 78 -40 64
-26 82 -39 102 -72 14 -22 29 -40 33 -40 5 0 22 9 38 21 l29 20 -25 43 c-21
37 -25 55 -25 129 0 48 -3 87 -7 86 -5 0 -23 -10 -40 -22z"/>
<path d="M3656 4424 c-73 -111 -73 -107 -22 -136 16 -9 23 -7 35 10 9 12 24
32 33 44 17 22 17 21 18 -44 0 -62 2 -68 30 -88 16 -12 34 -19 38 -16 5 3 38
49 73 102 l63 96 -29 24 c-17 13 -32 24 -35 24 -3 0 -18 -21 -35 -48 l-30 -47
-5 73 c-5 68 -7 74 -35 92 l-30 19 -69 -105z"/>
<path d="M2250 4510 c-459 -64 -860 -261 -1180 -580 -327 -328 -526 -740 -581
-1204 -15 -127 -6 -452 15 -566 123 -655 512 -1176 1097 -1470 280 -141 578
-210 902 -210 316 1 582 61 864 195 427 204 754 531 958 958 134 282 194 548
195 864 1 648 -293 1235 -815 1628 -183 138 -420 255 -644 319 -191 55 -292
68 -526 72 -121 1 -249 -1 -285 -6z m-424 -691 c302 -93 441 -457 282 -738
-87 -152 -260 -251 -438 -251 -147 0 -255 45 -360 150 -104 104 -150 213 -150
355 0 167 72 310 205 410 133 99 295 125 461 74z m1842 23 c-1 -5 -378 -603
-837 -1330 l-834 -1322 -419 0 -419 0 34 52 c18 29 390 620 827 1313 436 693
800 1268 808 1278 14 16 47 17 429 17 228 0 413 -4 411 -8z m42 -1902 l0 -60
-220 0 -220 0 0 -340 0 -340 -60 0 -60 0 0 340 0 340 -205 0 -205 0 0 60 0 60
485 0 485 0 0 -60z m-848 -387 l3 -238 98 -3 97 -3 0 -54 0 -55 -160 0 -160 0
0 295 0 295 60 0 60 0 2 -237z m183 221 c24 -24 16 -76 -14 -90 -30 -16 -62
-4 -80 28 -13 23 -13 29 2 52 20 30 66 35 92 10z m427 -101 l3 -118 58 -3 57
-3 0 121 0 120 60 0 60 0 0 -295 0 -295 -60 0 -60 0 0 115 0 115 -60 0 -60 0
0 -115 0 -115 -60 0 -60 0 0 295 0 295 60 0 59 0 3 -117z m-412 -178 l0 -95
-60 0 -60 0 0 95 0 95 60 0 60 0 0 -95z"/>
<path d="M1428 4469 c-44 -22 -43 -22 -22 -54 15 -23 18 -23 42 -11 57 30 65
41 53 64 -14 27 -25 27 -73 1z"/>
<path d="M1410 534 c-27 -59 -50 -110 -50 -113 0 -6 164 -91 174 -91 6 0 29
60 25 64 -2 2 -23 13 -46 25 -24 12 -43 26 -43 31 0 6 16 42 35 80 19 38 35
72 35 74 0 7 -56 36 -69 36 -6 0 -33 -48 -61 -106z"/>
<path d="M3457 609 c-42 -22 -77 -71 -77 -108 0 -39 37 -105 69 -124 43 -25
90 -21 144 13 67 42 76 68 47 129 l-23 49 -53 -26 c-57 -28 -62 -37 -41 -66
11 -15 17 -17 35 -7 31 16 28 -4 -3 -25 -13 -9 -33 -13 -44 -9 -23 7 -53 67
-45 89 8 22 39 37 58 30 8 -3 30 4 47 17 l32 22 -23 19 c-29 23 -75 22 -123
-3z"/>
<path d="M1642 432 c-23 -60 -42 -113 -42 -118 0 -10 68 -39 75 -32 6 6 85
213 85 223 0 9 -54 35 -72 35 -3 0 -24 -49 -46 -108z"/>
<path d="M3258 518 c-33 -11 -33 -12 -13 -68 8 -24 14 -44 12 -46 -1 -2 -26
15 -55 37 -50 38 -54 40 -87 29 -19 -6 -35 -17 -35 -23 0 -22 72 -227 79 -227
10 0 71 21 71 25 0 1 -7 22 -15 45 -8 23 -15 47 -15 52 0 5 25 -10 55 -33 52
-39 56 -40 90 -29 19 6 35 14 35 18 0 23 -76 232 -85 231 -5 0 -22 -5 -37 -11z"/>
<path d="M1807 443 c-28 -95 -51 -192 -47 -197 3 -2 21 -7 41 -11 37 -7 37 -6
43 32 12 70 22 70 45 0 21 -61 24 -65 57 -72 20 -3 38 -4 40 -2 5 4 63 216 64
228 0 4 -11 10 -24 13 -13 3 -31 8 -39 12 -11 4 -18 -8 -27 -45 -7 -28 -15
-51 -19 -51 -4 0 -16 27 -26 60 -13 43 -24 61 -39 66 -12 3 -29 8 -38 10 -13
4 -20 -6 -31 -43z"/>
<path d="M2437 434 c-4 -4 -4 -17 -1 -30 4 -17 -2 -30 -27 -52 -27 -24 -33
-37 -36 -83 -7 -91 37 -139 127 -139 90 0 134 48 127 139 -3 47 -9 59 -38 85
-26 23 -33 36 -30 59 2 26 0 28 -25 25 -20 -2 -30 -10 -35 -28 l-7 -25 -1 28
c-1 21 -6 27 -24 27 -13 0 -27 -3 -30 -6z m92 -128 c7 -8 11 -34 9 -58 -3 -42
-4 -43 -38 -43 -34 0 -35 1 -38 43 -2 24 2 50 9 58 15 18 43 18 58 0z"/>
<path d="M2954 430 l-21 -8 26 -119 c17 -74 31 -118 39 -117 77 6 76 4 47 132
-14 61 -25 113 -25 116 0 9 -42 6 -66 -4z"/>
<path d="M2105 411 c-8 -14 -35 -233 -29 -242 3 -5 23 -9 45 -9 36 0 39 2 39
29 0 26 24 60 35 50 2 -3 13 -25 24 -51 19 -44 21 -46 65 -50 27 -2 46 1 46 7
0 5 -14 39 -30 73 -17 35 -30 69 -30 75 0 7 21 27 46 46 25 19 41 37 37 42 -4
4 -28 9 -53 12 -41 4 -49 1 -83 -32 l-39 -36 4 40 c3 39 2 40 -35 46 -21 3
-39 3 -42 0z"/>
<path d="M2705 391 c-16 -3 -30 -10 -29 -14 0 -4 7 -59 14 -122 13 -125 14
-126 78 -109 21 6 22 10 16 50 l-6 44 32 0 c39 0 90 47 90 83 0 13 -9 36 -21
51 -18 23 -27 26 -82 25 -34 -1 -75 -4 -92 -8z m103 -68 c-5 -26 -38 -29 -38
-4 0 15 6 21 21 21 14 0 19 -5 17 -17z"/>
</g>
</svg>
